<svg fill="none" height="512" viewBox="0 0 128 128" width="512" xmlns="http://www.w3.org/2000/svg" xmlns:xlink="http://www.w3.org/1999/xlink"><linearGradient id="paint0_linear_5_67" gradientUnits="userSpaceOnUse" x1="64" x2="64" y1="13.939" y2="114.758"><stop offset="0" stop-color="#634b97"/><stop offset="1" stop-color="#dd9c9c"/></linearGradient><path clip-rule="evenodd" d="m23.946 30.7631c-3.6153 1.6033-5.946 5.1866-5.946 9.1414v18.5383c0 26.6115 18.1923 49.7742 44.0459 56.0802 1.2839.314 2.6243.314 3.9082 0 25.8536-6.306 44.0459-29.4687 44.0459-56.0802v-18.5383c0-3.9548-2.331-7.5381-5.946-9.1414l-36-15.9652c-2.5814-1.1448-5.5266-1.1448-8.108 0zm50.054 25.2369c0 3.7014-2.011 6.9331-5 8.6622v11.3378c0 2.7614-2.2386 5-5 5s-5-2.2386-5-5v-11.3378c-2.989-1.7291-5-4.9608-5-8.6622 0-5.5228 4.4772-10 10-10s10 4.4772 10 10z" fill="url(#paint0_linear_5_67)" fill-rule="evenodd"/></svg>